<svg xmlns="http://www.w3.org/2000/svg" xmlns:xlink="http://www.w3.org/1999/xlink" width="256" height="256" version="1.1" viewBox="0 0 256 256"><title>optimize</title><desc>Created with Sketch.</desc><defs><linearGradient id="linearGradient-1" x1="-12.284%" x2="60.11%" y1="39.14%" y2="103.141%"><stop offset="0%" stop-color="#37474F" stop-opacity=".2"/><stop offset="100%" stop-color="#37474F" stop-opacity=".02"/></linearGradient><linearGradient id="linearGradient-2" x1="0%" x2="100%" y1="50%" y2="50%"><stop offset="0%" stop-color="#FFF" stop-opacity=".1"/><stop offset="100%" stop-color="#FFF" stop-opacity="0"/></linearGradient></defs><g id="Page-1" fill="none" fill-rule="evenodd" stroke="none" stroke-width="1"><g id="optimize"><path id="Path" fill="#DB4437" d="M60.6315789,20.2105263 L60.6315789,80.8421053 L175.157895,197.052632 L235.789474,197.052632 C246.905263,197.052632 256,187.957895 256,176.842105 L256,20.2105263 C256,9.09473684 246.905263,0 235.789474,0 L80.8421053,0 C69.7263158,0 60.6315789,9.09473684 60.6315789,20.2105263 Z"/><polygon id="Path" fill="url(#linearGradient-1)" points="175.158 80.842 175.158 197.053 288 197.053"/><path id="Path" fill="#A52714" d="M80.8421053,197.052632 L235.789474,197.052632 C246.905263,197.052632 256,187.957895 256,176.842105 L256,175.157895 C256,186.273684 246.905263,195.368421 235.789474,195.368421 L80.8421053,195.368421 C69.7263158,195.368421 60.6315789,186.273684 60.6315789,175.157895 L60.6315789,176.842105 C60.6315789,187.957895 69.7263158,197.052632 80.8421053,197.052632 Z" opacity=".2"/><path id="path-4" fill="#FF8A80" d="M175.157895,80.8421053 L64,80.8421053 L20.2105263,80.8421053 C9.09473684,80.8421053 0,89.9368421 0,101.052632 L0,235.789474 C0,246.905263 9.09473684,256 20.2105263,256 L154.947368,256 C166.063158,256 175.157895,246.905263 175.157895,235.789474 L175.157895,192 L175.157895,80.8421053 Z"/><path id="Path" fill="#FFF" d="M235.789474,0 L80.8421053,0 C69.7263158,0 60.6315789,9.09473684 60.6315789,20.2105263 L60.6315789,21.8947368 C60.6315789,10.7789474 69.7263158,1.68421053 80.8421053,1.68421053 L235.789474,1.68421053 C246.905263,1.68421053 256,10.7789474 256,21.8947368 L256,20.2105263 C256,9.09473684 246.905263,0 235.789474,0 Z" opacity=".2"/><path id="Path" fill="#C53929" d="M20.2105263,256 L154.947368,256 C166.063158,256 175.157895,246.905263 175.157895,235.789474 L175.157895,234.105263 C175.157895,245.221053 166.063158,254.315789 154.947368,254.315789 L20.2105263,254.315789 C9.09473684,254.315789 0,245.221053 0,234.105263 L0,235.789474 C0,246.905263 9.09473684,256 20.2105263,256 Z" opacity=".2"/><path id="Path" fill="#FFF" d="M175.157895,82.5263158 L20.2105263,82.5263158 C9.09473684,82.5263158 0,91.6210526 0,102.736842 L0,101.052632 C0,89.9368421 9.09473684,80.8421053 20.2105263,80.8421053 L175.157895,80.8421053 L175.157895,82.5263158 Z" opacity=".2"/><path id="Path" fill="url(#linearGradient-2)" d="M235.789474,0 L80.8421053,0 C69.7263158,0 60.6315789,9.09473684 60.6315789,20.2105263 L60.6315789,80.8421053 L20.2105263,80.8421053 C9.09473684,80.8421053 0,89.9368421 0,101.052632 L0,235.789474 C0,246.905263 9.09473684,256 20.2105263,256 L154.947368,256 C166.063158,256 175.157895,246.905263 175.157895,235.789474 L175.157895,197.052632 L235.789474,197.052632 C246.905263,197.052632 256,187.957895 256,176.842105 L256,20.2105263 C256,9.09473684 246.905263,0 235.789474,0 Z"/></g></g></svg>